<svg version="1.2" xmlns="http://www.w3.org/2000/svg" viewBox="0 0 76 74" width="76" height="74"><style>.a{fill:#00b2e3}.b{fill:#fff}</style><path class="a" d="m0 29.5v45.2h45.2c19.6 0 30.2-10.6 30.2-30.2v-45.2h-45.2c-19.6 0-30.2 10.6-30.2 30.2z"/><path class="b" d="m18.5 37.1c0-13.5 6.4-19.6 19.1-19.6 7.7 0 12.8 2.5 15.2 8.6l-8.8 4.4c-1.5-3.1-3.2-4-6.6-4-5.3 0-8.1 2.6-8.1 10.8 0 8.3 3 11 8.3 11 3.2 0 6.1-1.6 6.6-5.3h-6.6v-8h16.4v21h-7.4l-0.6-4.2c-1.9 3.1-5.4 5.1-10.4 5.1-10.5-0.1-17.1-6.5-17.1-19.8z"/></svg>